<svg preserveAspectRatio="none" width="100%" height="100%" overflow="visible" style="display: block;" viewBox="0 0 11.475 11.475" fill="none" xmlns="http://www.w3.org/2000/svg">
<g id="Group">
<path id="Vector" d="M11.1388 0H8.43816C8.2525 0 8.10198 0.15052 8.10198 0.336182V2.70066H5.7375C5.55184 2.70066 5.40132 2.85118 5.40132 3.03684V5.40132H3.03684C2.85118 5.40132 2.70066 5.55184 2.70066 5.7375V8.10198H0.336182C0.15052 8.10198 0 8.2525 0 8.43816V11.1388C0 11.3245 0.15052 11.475 0.336182 11.475H11.1388C11.3245 11.475 11.475 11.3245 11.475 11.1388V0.336182C11.475 0.15052 11.3245 0 11.1388 0ZM10.8026 10.8026H0.672363V8.77434H3.03684C3.2225 8.77434 3.37302 8.62382 3.37302 8.43816V6.07368H5.7375C5.92316 6.07368 6.07368 5.92316 6.07368 5.7375V3.37302H8.43816C8.62382 3.37302 8.77434 3.2225 8.77434 3.03684V0.672363H10.8026V10.8026Z" fill="var(--fill-0, #1F1F1F)"/>
</g>
</svg>
