<svg preserveAspectRatio="none" width="100%" height="100%" overflow="visible" style="display: block;" viewBox="0 0 11.5706 11.0919" fill="none" xmlns="http://www.w3.org/2000/svg">
<g id="Group">
<path id="Vector" d="M10.8056 5.06811H1.24311V1.03753C1.24311 0.764998 1.49653 0.525929 1.78578 0.525929H2.78506C3.06716 0.525929 3.29426 0.755428 3.29666 1.03513C2.83049 1.15228 2.43844 1.58259 2.43844 2.03679V2.67748C2.43844 2.80898 2.54602 2.91655 2.67751 2.91655H4.35092C4.48242 2.91655 4.58999 2.80898 4.58999 2.67748V2.03681C4.58999 1.57542 4.22423 1.15228 3.7748 1.03753C3.7748 0.492467 3.33254 0.0478125 2.78508 0.0478125H1.7858C1.23357 0.0478125 0.764998 0.502037 0.764998 1.03753V5.06811C0.370546 5.06571 0.0502106 5.38607 0.0478125 5.78052C0.0478125 5.98611 0.133875 6.17975 0.286882 6.31601V7.56869C0.286882 8.54166 0.719591 9.37599 1.42003 9.91866L1.02798 10.698C0.968208 10.8151 1.01603 10.9586 1.13556 11.0183C1.25271 11.0781 1.39614 11.0303 1.45589 10.9107L1.82406 10.1768C2.30697 10.435 2.84723 10.5689 3.39469 10.5641H8.17592C8.72338 10.5689 9.26364 10.435 9.74655 10.1768L10.1147 10.9107C10.1745 11.0279 10.3179 11.0757 10.4351 11.0183C10.5522 10.961 10.6 10.8151 10.5426 10.698L10.1506 9.91626C10.851 9.37597 11.2837 8.53926 11.2837 7.56629V6.31361C11.4343 6.18212 11.5228 5.98848 11.5228 5.78529C11.5228 5.38847 11.2024 5.06811 10.8056 5.06811ZM3.53573 1.48218C3.82021 1.48218 4.11188 1.76189 4.11188 2.03681V2.43844H2.91655V2.03681C2.91655 1.77146 3.23929 1.48218 3.53573 1.48218ZM10.8056 7.56871C10.8056 9.00548 9.67484 10.0884 8.17592 10.0884H3.39467C1.89575 10.0884 0.764998 9.00546 0.764998 7.56871V6.5025H10.8056V7.56871ZM10.8056 6.02436H0.77217C0.652646 6.02436 0.545068 5.9383 0.528327 5.82115C0.506811 5.67294 0.621561 5.54622 0.764998 5.54622H10.7984C10.9179 5.54622 11.0255 5.63229 11.0423 5.74944C11.0638 5.89767 10.949 6.02436 10.8056 6.02436Z" fill="var(--fill-0, #1F1F1F)" stroke="var(--stroke-0, black)" stroke-width="0.095625"/>
</g>
</svg>
