<svg preserveAspectRatio="none" width="100%" height="100%" overflow="visible" style="display: block;" viewBox="0 0 11.5118 9.945" fill="none" xmlns="http://www.w3.org/2000/svg">
<g id="Group">
<path id="Vector" d="M10.2027 4.38122V1.18039C10.2027 0.529523 9.67321 0 9.02234 0H2.48946C1.83859 0 1.30911 0.529523 1.30911 1.18039V4.38122C0.559134 4.56164 0 5.23767 0 6.04221V8.42964C0 8.61905 0.153544 8.77259 0.34295 8.77259H1.30909V9.60205C1.30909 9.79146 1.46263 9.945 1.65204 9.945C1.84145 9.945 1.99499 9.79146 1.99499 9.60205V8.77259H9.51681V9.60205C9.51681 9.79146 9.67036 9.945 9.85976 9.945C10.0492 9.945 10.2027 9.79146 10.2027 9.60205V8.77259H11.1689C11.3583 8.77259 11.5118 8.61905 11.5118 8.42964V6.04221C11.5118 5.23767 10.9527 4.56164 10.2027 4.38122ZM1.99501 1.18039C1.99501 0.90775 2.21684 0.685922 2.48946 0.685922H9.02236C9.29501 0.685922 9.51683 0.90775 9.51683 1.18039V4.3336H8.38352V3.79255C8.38352 2.89611 7.65421 2.16681 6.75779 2.16681H4.7541C3.85766 2.16681 3.12837 2.89613 3.12837 3.79255V4.33358H1.99501V1.18039ZM7.69763 3.79255V4.33358H3.81422V3.79255C3.81422 3.27431 4.23582 2.85271 4.75405 2.85271H6.75777C7.27598 2.85269 7.69763 3.27433 7.69763 3.79255ZM0.685899 8.08669V6.04221C0.685899 5.47829 1.14469 5.0195 1.70861 5.0195H9.80319C10.3671 5.0195 10.8259 5.47829 10.8259 6.04221V8.08669H0.685899Z" fill="var(--fill-0, #1F1F1F)"/>
</g>
</svg>
