<svg preserveAspectRatio="none" width="100%" height="100%" overflow="visible" style="display: block;" viewBox="0 0 11.4745 11.4747" fill="none" xmlns="http://www.w3.org/2000/svg">
<g id="037---Triangle-Ruler">
<path id="Shape" d="M11.2385 0.0291253C11.0956 -0.0300925 10.931 0.00266962 10.8216 0.112128L10.3879 0.545883C10.385 0.54856 10.3825 0.551047 10.3798 0.553915L0.112002 10.8217C0.00269151 10.9311 -0.030042 11.0955 0.0290495 11.2384C0.088141 11.3812 0.227435 11.4745 0.382047 11.4747H10.9008C11.2177 11.4747 11.4745 11.2178 11.4745 10.9009V0.382173C11.4747 0.227524 11.3815 0.0880688 11.2385 0.0291253ZM11.092 10.9009C11.092 11.0065 11.0064 11.0922 10.9008 11.0922H10.7095V10.3272C10.7095 10.2215 10.6239 10.1359 10.5183 10.1359C10.4127 10.1359 10.327 10.2215 10.327 10.3272V11.0922H9.94455V10.7097C9.94455 10.604 9.85892 10.5184 9.7533 10.5184C9.64767 10.5184 9.56205 10.604 9.56205 10.7097V11.0922H9.17955V10.3272C9.17955 10.2215 9.09392 10.1359 8.9883 10.1359C8.88267 10.1359 8.79705 10.2215 8.79705 10.3272V11.0922H8.41455V10.7097C8.41455 10.604 8.32892 10.5184 8.2233 10.5184C8.11767 10.5184 8.03205 10.604 8.03205 10.7097V11.0922H7.64955V10.3272C7.64955 10.2215 7.56392 10.1359 7.4583 10.1359C7.35267 10.1359 7.26705 10.2215 7.26705 10.3272V11.0922H6.88455V10.7097C6.88455 10.604 6.79892 10.5184 6.6933 10.5184C6.58767 10.5184 6.50205 10.604 6.50205 10.7097V11.0922H6.11955V10.3272C6.11955 10.2215 6.03392 10.1359 5.9283 10.1359C5.82267 10.1359 5.73705 10.2215 5.73705 10.3272V11.0922H5.35455V10.7097C5.35455 10.604 5.26892 10.5184 5.1633 10.5184C5.05767 10.5184 4.97205 10.604 4.97205 10.7097V11.0922H4.58955V10.3272C4.58955 10.2215 4.50392 10.1359 4.3983 10.1359C4.29267 10.1359 4.20705 10.2215 4.20705 10.3272V11.0922H3.82455V10.7097C3.82455 10.604 3.73892 10.5184 3.6333 10.5184C3.52767 10.5184 3.44205 10.604 3.44205 10.7097V11.0922H3.05955V10.3272C3.05955 10.2215 2.97392 10.1359 2.8683 10.1359C2.76267 10.1359 2.67705 10.2215 2.67705 10.3272V11.0922H2.29455V10.7097C2.29455 10.604 2.20892 10.5184 2.1033 10.5184C1.99767 10.5184 1.91205 10.604 1.91205 10.7097V11.0922H1.52955V10.7097C1.52955 10.604 1.44392 10.5184 1.3383 10.5184C1.23267 10.5184 1.14705 10.604 1.14705 10.7097V11.0922H0.382047L10.327 1.14564V9.17967C10.327 9.2853 10.4127 9.37092 10.5183 9.37092C10.6239 9.37092 10.7095 9.2853 10.7095 9.17967V0.763143L11.092 0.380643V10.9009Z" fill="var(--fill-0, #1F1F1F)"/>
<path id="Shape_2" d="M9.0615 5.17801C8.99001 5.1484 8.90773 5.16478 8.85304 5.21951L5.21929 8.85326C5.16461 8.90795 5.14825 8.9902 5.17785 9.06165C5.20744 9.13311 5.27716 9.17971 5.3545 9.17972H8.98825C9.09387 9.17972 9.1795 9.0941 9.1795 8.98847V5.35472C9.17952 5.27737 9.13295 5.20763 9.0615 5.17801ZM8.797 8.79722H5.81618L8.797 5.8164V8.79722Z" fill="var(--fill-0, #1F1F1F)"/>
</g>
</svg>
