<svg width="125" height="23" viewBox="0 0 125 23" fill="none" xmlns="http://www.w3.org/2000/svg">
<path d="M22.2514 5.64968L19.1534 5.64968C19.2992 4.54707 19.1534 3.40889 19.5908 2.6264C20.2468 1.48822 21.5954 2.37742 22.6523 2.23515V0.634583C21.5954 0.634583 20.6113 0.563446 19.6272 0.67015C18.388 0.812423 17.7684 1.45265 17.5497 2.66196C17.4039 3.65787 17.3311 4.65378 17.2217 5.61412C16.7479 5.64968 16.2741 5.68525 15.8732 5.72082L15.8732 7.10798C16.3834 7.14354 16.8208 7.17911 17.331 7.25025L17.331 16H19.2628L19.2628 7.10798L22.215 7.10798V5.64968H22.2514ZM13.0303 16H14.962L14.962 0.49231L13.0303 0.49231L13.0303 16ZM9.96872 13.368C8.98465 12.621 8.83886 11.9452 9.42202 10.7359C9.93228 9.66888 10.479 8.63741 11.0257 7.57036C11.2808 7.03684 11.4995 6.46775 11.7546 5.86309C9.67715 5.50741 9.53136 5.61412 8.87531 7.28582C8.65662 7.81934 8.43795 8.31729 8.10992 9.06422C7.81834 7.32138 7.27163 6.0765 5.66796 5.68525C3.73626 5.22287 2.20548 5.86309 1.14851 7.39252C0.0915442 8.88638 -0.163584 10.5581 0.0915464 12.2654C0.310229 13.8659 1.2943 15.1819 2.89798 15.6443C4.35586 16.0711 5.88664 15.8577 7.01651 14.5773C7.52677 13.9726 8.03702 13.368 8.51084 12.7633C8.87531 13.5814 9.20333 14.435 9.6407 15.1464C10.151 15.9644 11.2444 16.0356 11.8275 15.3242C12.0462 15.0752 12.5929 14.0438 12.3742 13.0123C11.6453 13.6881 10.8799 14.0438 9.96872 13.368ZM7.19874 11.3406C6.72493 12.3721 6.03243 13.2968 5.30349 14.0793C4.82967 14.5773 3.99139 15.0041 3.33534 15.0041C2.35127 15.0041 2.05969 14.0438 1.87745 13.2257C1.80456 12.87 1.73167 12.3009 1.73167 11.9452C1.58588 10.3802 2.20548 8.99309 3.37179 7.78377C4.64744 6.50332 6.32401 6.78786 7.12584 8.38843C7.6361 9.3132 7.709 10.238 7.19874 11.3406ZM34.4248 13.0478C33.7323 13.6881 32.9304 14.0438 32.0557 13.368C31.0716 12.621 30.9258 11.9452 31.509 10.7359C32.0192 9.66888 32.566 8.63741 33.1127 7.57036C33.3678 7.03684 33.5865 6.46775 33.8416 5.86309C31.7641 5.50741 31.6183 5.61412 30.9623 7.28582C30.7436 7.81934 30.5249 8.31729 30.1969 9.06422C29.9053 7.32138 29.3586 6.0765 27.7549 5.68525C25.8232 5.22287 24.2925 5.86309 23.2355 7.39252C22.1785 8.88638 21.9234 10.5581 22.1785 12.2654C22.3972 13.8659 23.3813 15.1819 24.985 15.6443C26.4428 16.0711 27.9736 15.8577 29.1035 14.5773C29.6137 13.9726 30.124 13.368 30.5978 12.7633C30.9623 13.5814 31.2903 14.435 31.7277 15.1464C32.2379 15.9644 33.3313 16.0356 33.9145 15.3242C34.0603 15.1108 34.607 14.0793 34.4248 13.0478ZM29.2493 11.3406C28.7755 12.3721 28.083 13.2968 27.354 14.0793C26.8802 14.5773 26.0419 15.0041 25.3859 15.0041C24.4018 15.0041 24.1102 14.0438 23.928 13.2257C23.8551 12.87 23.7822 12.3009 23.7822 11.9452C23.6364 10.3802 24.256 8.99309 25.4223 7.78377C26.698 6.50332 28.3745 6.78786 29.1764 8.38843C29.6866 9.3132 29.7595 10.238 29.2493 11.3406Z" fill="#141519"/>
<path d="M41.2574 16H39.4792V2.14646H41.4848L45.0619 9.0112L46.468 12.0507L47.8533 9.0112L51.4511 2.14646H53.4568V16H51.6579V8.34954L51.844 4.60702L50.3139 8.03938L47.3364 13.6842H45.5789L42.6014 8.03938L41.0506 4.60702L41.2574 8.34954V16ZM60.3462 16.2068C59.4226 16.2068 58.6025 15.9931 57.8857 15.5658C57.1826 15.1385 56.6313 14.5319 56.2315 13.7462C55.8318 12.9605 55.6319 12.0438 55.6319 10.9962C55.6319 9.93477 55.8318 9.01809 56.2315 8.24615C56.6313 7.46043 57.1826 6.85391 57.8857 6.42658C58.6025 5.99926 59.4226 5.7856 60.3462 5.7856C61.2698 5.7856 62.0831 5.99926 62.7861 6.42658C63.5029 6.85391 64.0612 7.46043 64.4609 8.24615C64.8745 9.01809 65.0812 9.93477 65.0812 10.9962C65.0812 12.0438 64.8745 12.9605 64.4609 13.7462C64.0612 14.5319 63.5029 15.1385 62.7861 15.5658C62.0831 15.9931 61.2698 16.2068 60.3462 16.2068ZM60.3462 14.6974C60.9252 14.6974 61.4283 14.5664 61.8556 14.3045C62.2967 14.0288 62.6414 13.6222 62.8895 13.0846C63.1376 12.5332 63.2617 11.837 63.2617 10.9962C63.2617 10.1553 63.1376 9.46609 62.8895 8.92849C62.6414 8.37711 62.2967 7.97046 61.8556 7.70855C61.4283 7.43286 60.9252 7.29502 60.3462 7.29502C59.781 7.29502 59.2779 7.43286 58.8368 7.70855C58.4095 7.97046 58.0718 8.37711 57.8236 8.92849C57.5893 9.46609 57.4721 10.1553 57.4721 10.9962C57.4721 11.837 57.5893 12.5332 57.8236 13.0846C58.0718 13.6222 58.4095 14.0288 58.8368 14.3045C59.2779 14.5664 59.781 14.6974 60.3462 14.6974ZM69.1179 16H67.3397V5.99237H69.1179V16ZM69.1179 10.3345L68.9939 9.48677C69.049 9.01809 69.1524 8.5632 69.304 8.12209C69.4694 7.68098 69.6831 7.28812 69.945 6.94351C70.2207 6.58511 70.5515 6.30252 70.9375 6.09575C71.3235 5.88898 71.7646 5.7856 72.2608 5.7856C72.7984 5.7856 73.2809 5.9648 73.7082 6.3232C74.1493 6.6816 74.3699 7.2192 74.3699 7.936C74.3699 8.36332 74.3216 8.72862 74.2251 9.03188C74.1424 9.32135 74.0597 9.52812 73.977 9.65218H72.0127C72.1781 9.50055 72.3159 9.28689 72.4262 9.0112C72.5503 8.73551 72.6123 8.45982 72.6123 8.18412C72.6123 7.89465 72.5296 7.64652 72.3642 7.43975C72.2126 7.2192 71.9507 7.10892 71.5785 7.10892C71.1511 7.10892 70.7514 7.26055 70.3792 7.56382C70.007 7.86708 69.7038 8.25994 69.4694 8.7424C69.2351 9.22486 69.1179 9.75557 69.1179 10.3345ZM79.3519 16.2274C78.8005 16.2274 78.318 16.1172 77.9045 15.8966C77.4909 15.6623 77.167 15.3383 76.9327 14.9248C76.6983 14.5113 76.5812 14.015 76.5812 13.4361V4.7104L78.3594 3.38708V12.8985C78.3594 13.5326 78.4903 13.9599 78.7522 14.1804C79.0141 14.3872 79.345 14.4906 79.7447 14.4906C80.1858 14.4906 80.558 14.3458 80.8613 14.0564C81.1645 13.7531 81.3851 13.443 81.5229 13.1259L82.1226 14.9041C81.902 15.2487 81.5574 15.5589 81.0887 15.8346C80.62 16.0965 80.0411 16.2274 79.3519 16.2274ZM81.647 7.3984H74.9477V5.99237H81.647V7.3984ZM86.9476 20.0527C85.6656 20.0527 84.6455 19.8528 83.8874 19.453C83.143 19.0671 82.7708 18.5433 82.7708 17.8816C82.7708 17.5646 82.8466 17.2889 82.9983 17.0545C83.1637 16.834 83.3705 16.641 83.6186 16.4756C83.8805 16.3102 84.1355 16.1792 84.3836 16.0827C84.0804 15.9862 83.8391 15.8208 83.6599 15.5865C83.4945 15.3521 83.4118 15.0695 83.4118 14.7387C83.4118 14.4768 83.4738 14.208 83.5979 13.9323C83.7357 13.6566 83.9218 13.3809 84.1562 13.1052C84.4043 12.8158 84.7007 12.5401 85.0453 12.2782L85.4588 12.4642C85.3348 12.6297 85.2038 12.8295 85.066 13.0639C84.9419 13.2982 84.8799 13.5326 84.8799 13.7669C84.8799 14.0288 84.9695 14.2287 85.1487 14.3665C85.3279 14.5044 85.6794 14.5733 86.2032 14.5733H89.222C90.1318 14.5733 90.8486 14.7594 91.3724 15.1316C91.91 15.49 92.1788 16.0551 92.1788 16.8271C92.1788 17.4474 91.9721 17.9988 91.5585 18.4812C91.1588 18.9775 90.566 19.3634 89.7803 19.6391C89.0084 19.9148 88.0641 20.0527 86.9476 20.0527ZM86.9476 18.626C88.0917 18.626 88.967 18.4881 89.5735 18.2124C90.1938 17.9367 90.504 17.5508 90.504 17.0545C90.504 16.7237 90.3799 16.4825 90.1318 16.3308C89.8837 16.193 89.5046 16.1241 88.9946 16.1241H84.9005C84.7489 16.2757 84.5973 16.448 84.4457 16.641C84.294 16.8478 84.2182 17.0752 84.2182 17.3233C84.2182 17.7231 84.4457 18.0401 84.9005 18.2745C85.3692 18.5088 86.0516 18.626 86.9476 18.626ZM87.3611 12.9398C86.5754 12.9398 85.8861 12.7882 85.2934 12.4849C84.7145 12.1817 84.2527 11.7612 83.9081 11.2236C83.5772 10.6722 83.4118 10.0519 83.4118 9.36271C83.4118 8.65969 83.5772 8.03938 83.9081 7.50178C84.2527 6.96418 84.7145 6.54375 85.2934 6.24049C85.8861 5.93723 86.5754 5.7856 87.3611 5.7856C88.1468 5.7856 88.8361 5.93723 89.4288 6.24049C90.0353 6.54375 90.4971 6.96418 90.8141 7.50178C91.145 8.03938 91.3104 8.65969 91.3104 9.36271C91.3104 10.0519 91.145 10.6722 90.8141 11.2236C90.4971 11.7612 90.0353 12.1817 89.4288 12.4849C88.8361 12.7882 88.1468 12.9398 87.3611 12.9398ZM87.3611 11.5545C87.9814 11.5545 88.5052 11.3615 88.9325 10.9755C89.3599 10.5895 89.5735 10.0519 89.5735 9.36271C89.5735 8.67348 89.3599 8.13588 88.9325 7.74991C88.5052 7.36394 87.9814 7.17095 87.3611 7.17095C86.7408 7.17095 86.217 7.36394 85.7897 7.74991C85.3623 8.13588 85.1487 8.67348 85.1487 9.36271C85.1487 10.0519 85.3623 10.5895 85.7897 10.9755C86.217 11.3615 86.7408 11.5545 87.3611 11.5545ZM91.6205 4.37957L89.5529 6.69538L89.1186 6.24049L89.7596 3.71791L91.6205 4.37957ZM102.33 16H101.172C100.827 16 100.517 15.938 100.241 15.8139C99.9795 15.6898 99.7727 15.49 99.6211 15.2143C99.4694 14.9386 99.3936 14.5664 99.3936 14.0977V9.94166L99.3316 9.65218C99.3316 9.01809 99.1731 8.48738 98.856 8.06006C98.5528 7.63274 97.9807 7.41908 97.1398 7.41908C96.423 7.41908 95.8234 7.60517 95.3409 7.97735C94.8723 8.33575 94.507 8.79065 94.2451 9.34203L93.0251 8.08074C93.2319 7.73612 93.5283 7.39151 93.9142 7.04689C94.314 6.68849 94.8033 6.39212 95.3823 6.15778C95.9612 5.90966 96.616 5.7856 97.3466 5.7856C98.5734 5.7856 99.5108 6.13022 100.159 6.81945C100.807 7.49489 101.13 8.43225 101.13 9.63151V13.7462C101.13 13.9806 101.179 14.146 101.275 14.2425C101.372 14.3252 101.51 14.3665 101.689 14.3665H102.33V16ZM95.9199 16.2068C95.079 16.2068 94.4243 15.9931 93.9556 15.5658C93.5007 15.1247 93.2732 14.5733 93.2732 13.9116C93.2732 13.2362 93.5007 12.6779 93.9556 12.2368C94.4105 11.7819 94.9963 11.3959 95.7131 11.0789L99.6417 9.32135L99.9105 10.5206L96.4575 12.1334C95.9888 12.3678 95.6442 12.6021 95.4236 12.8364C95.2031 13.057 95.0928 13.3189 95.0928 13.6222C95.0928 13.9668 95.21 14.2356 95.4443 14.4286C95.6787 14.6215 96.0302 14.718 96.4988 14.718C96.9262 14.718 97.3121 14.656 97.6568 14.5319C98.0152 14.3941 98.3184 14.208 98.5665 13.9737C98.8284 13.7393 99.0283 13.4705 99.1662 13.1673C99.3178 12.864 99.3936 12.5263 99.3936 12.1541L99.4556 13.1052C99.3729 13.5739 99.1937 14.0495 98.918 14.5319C98.6424 15.0006 98.2564 15.4004 97.7601 15.7312C97.2639 16.0482 96.6505 16.2068 95.9199 16.2068ZM107.786 20.0527C106.504 20.0527 105.484 19.8528 104.726 19.453C103.981 19.0671 103.609 18.5433 103.609 17.8816C103.609 17.5646 103.685 17.2889 103.837 17.0545C104.002 16.834 104.209 16.641 104.457 16.4756C104.719 16.3102 104.974 16.1792 105.222 16.0827C104.919 15.9862 104.678 15.8208 104.498 15.5865C104.333 15.3521 104.25 15.0695 104.25 14.7387C104.25 14.4768 104.312 14.208 104.436 13.9323C104.574 13.6566 104.76 13.3809 104.995 13.1052C105.243 12.8158 105.539 12.5401 105.884 12.2782L106.297 12.4642C106.173 12.6297 106.042 12.8295 105.904 13.0639C105.78 13.2982 105.718 13.5326 105.718 13.7669C105.718 14.0288 105.808 14.2287 105.987 14.3665C106.166 14.5044 106.518 14.5733 107.042 14.5733H110.06C110.97 14.5733 111.687 14.7594 112.211 15.1316C112.748 15.49 113.017 16.0551 113.017 16.8271C113.017 17.4474 112.811 17.9988 112.397 18.4812C111.997 18.9775 111.404 19.3634 110.619 19.6391C109.847 19.9148 108.903 20.0527 107.786 20.0527ZM107.786 18.626C108.93 18.626 109.805 18.4881 110.412 18.2124C111.032 17.9367 111.342 17.5508 111.342 17.0545C111.342 16.7237 111.218 16.4825 110.97 16.3308C110.722 16.193 110.343 16.1241 109.833 16.1241H105.739C105.587 16.2757 105.436 16.448 105.284 16.641C105.132 16.8478 105.057 17.0752 105.057 17.3233C105.057 17.7231 105.284 18.0401 105.739 18.2745C106.208 18.5088 106.89 18.626 107.786 18.626ZM108.2 12.9398C107.414 12.9398 106.725 12.7882 106.132 12.4849C105.553 12.1817 105.091 11.7612 104.747 11.2236C104.416 10.6722 104.25 10.0519 104.25 9.36271C104.25 8.65969 104.416 8.03938 104.747 7.50178C105.091 6.96418 105.553 6.54375 106.132 6.24049C106.725 5.93723 107.414 5.7856 108.2 5.7856C108.985 5.7856 109.675 5.93723 110.267 6.24049C110.874 6.54375 111.336 6.96418 111.653 7.50178C111.983 8.03938 112.149 8.65969 112.149 9.36271C112.149 10.0519 111.983 10.6722 111.653 11.2236C111.336 11.7612 110.874 12.1817 110.267 12.4849C109.675 12.7882 108.985 12.9398 108.2 12.9398ZM108.2 11.5545C108.82 11.5545 109.344 11.3615 109.771 10.9755C110.198 10.5895 110.412 10.0519 110.412 9.36271C110.412 8.67348 110.198 8.13588 109.771 7.74991C109.344 7.36394 108.82 7.17095 108.2 7.17095C107.579 7.17095 107.055 7.36394 106.628 7.74991C106.201 8.13588 105.987 8.67348 105.987 9.36271C105.987 10.0519 106.201 10.5895 106.628 10.9755C107.055 11.3615 107.579 11.5545 108.2 11.5545ZM112.459 4.37957L110.391 6.69538L109.957 6.24049L110.598 3.71791L112.459 4.37957ZM118.829 16.2068C117.892 16.2068 117.058 15.9931 116.327 15.5658C115.61 15.1385 115.045 14.5388 114.632 13.7669C114.232 12.9812 114.032 12.0576 114.032 10.9962C114.032 9.93477 114.232 9.01809 114.632 8.24615C115.031 7.46043 115.583 6.85391 116.286 6.42658C117.002 5.99926 117.816 5.7856 118.726 5.7856C119.663 5.7856 120.469 5.98548 121.145 6.38523C121.834 6.7712 122.358 7.32258 122.716 8.03938C123.088 8.75618 123.274 9.61083 123.274 10.6033C123.274 10.755 123.268 10.9066 123.254 11.0582C123.24 11.1961 123.219 11.3132 123.192 11.4097H115.397V10.1071H122.117L121.682 10.7274C121.682 9.59705 121.42 8.7424 120.897 8.16345C120.373 7.58449 119.649 7.29502 118.726 7.29502C117.816 7.29502 117.092 7.59828 116.554 8.2048C116.031 8.79754 115.769 9.69354 115.769 10.8928V11.1202C115.769 11.8784 115.893 12.5263 116.141 13.0639C116.389 13.6015 116.741 14.015 117.195 14.3045C117.664 14.5802 118.209 14.718 118.829 14.718C119.504 14.718 120.049 14.6146 120.462 14.4079C120.89 14.2011 121.227 13.9461 121.476 13.6428C121.724 13.3258 121.91 13.0294 122.034 12.7537L123.13 13.9943C122.758 14.5871 122.22 15.104 121.517 15.5451C120.814 15.9862 119.918 16.2068 118.829 16.2068Z" fill="url(#paint0_radial_35_9713)"/>
<defs>
<radialGradient id="paint0_radial_35_9713" cx="0" cy="0" r="1" gradientUnits="userSpaceOnUse" gradientTransform="translate(37.9077 10.3385) scale(87.0154 20.6769)">
<stop/>
<stop offset="0.4" stop-color="#D30248"/>
<stop offset="0.8" stop-color="#D30202"/>
<stop offset="1" stop-color="#D34802"/>
</radialGradient>
</defs>
</svg>
