<svg width="24" height="24" viewBox="0 0 24 24" fill="none" xmlns="http://www.w3.org/2000/svg">
<path d="M10.2168 4.39697C13.4099 4.39697 16.0136 7.00075 16.0137 10.1938C16.0137 11.6124 15.4907 12.9043 14.6553 13.9155L14.3643 14.2671L14.6885 14.5894L19.6074 19.4604C19.6112 19.4657 19.6201 19.4815 19.6201 19.5093C19.62 19.5406 19.6089 19.5563 19.6064 19.5591C19.5954 19.5701 19.5876 19.5733 19.584 19.5747C19.5795 19.5764 19.5709 19.5796 19.5557 19.5796C19.5406 19.5796 19.5319 19.5764 19.5273 19.5747C19.5238 19.5733 19.5159 19.5701 19.5049 19.5591L14.2842 14.3384L13.9336 14.6362C12.9296 15.4875 11.6175 15.9907 10.2168 15.9907C7.0237 15.9906 4.41992 13.387 4.41992 10.1938C4.42001 7.00081 7.02375 4.39706 10.2168 4.39697ZM10.1934 4.5376C7.06578 4.5376 4.53719 7.06629 4.53711 10.1938C4.53711 13.3215 7.06573 15.8501 10.1934 15.8501C13.3209 15.85 15.8496 13.3214 15.8496 10.1938C15.8495 7.06635 13.3209 4.53769 10.1934 4.5376Z" fill="#141519" stroke="white"/>
</svg>
