<svg width="40" height="18" viewBox="0 0 40 18" fill="none" xmlns="http://www.w3.org/2000/svg">
<path d="M25.8275 5.98624L22.2316 5.98624C22.4009 4.70642 22.2316 3.38532 22.7393 2.47706C23.5008 1.15596 25.0661 2.18807 26.2929 2.02294V0.165138C25.0661 0.165138 23.9238 0.0825688 22.7816 0.206422C21.3432 0.37156 20.6241 1.11468 20.3702 2.51835C20.201 3.67431 20.1164 4.83028 19.9895 5.94496C19.4395 5.98624 18.8896 6.02752 18.4242 6.06881V7.6789C19.0165 7.72018 19.5241 7.76147 20.1164 7.84404L20.1164 18H22.3586L22.3586 7.6789L25.7852 7.6789V5.98624H25.8275ZM15.1244 18H17.3666L17.3666 0L15.1244 0L15.1244 18ZM11.5708 14.945C10.4286 14.078 10.2594 13.2936 10.9363 11.8899C11.5285 10.6514 12.1631 9.45413 12.7977 8.2156C13.0938 7.59633 13.3476 6.93578 13.6438 6.23394C11.2324 5.8211 11.0632 5.94495 10.3017 7.88532C10.0479 8.50459 9.79404 9.08257 9.4133 9.94954C9.07486 7.92661 8.44029 6.48165 6.57888 6.02752C4.33673 5.49083 2.55993 6.23395 1.33309 8.00918C0.106257 9.74312 -0.189874 11.6835 0.106259 13.6651C0.360088 15.5229 1.50231 17.0505 3.36372 17.5872C5.05591 18.0826 6.83271 17.8349 8.14416 16.3486C8.73643 15.6468 9.32869 14.945 9.87865 14.2431C10.3017 15.1927 10.6824 16.1835 11.1901 17.0092C11.7824 17.9587 13.0515 18.0413 13.7284 17.2156C13.9822 16.9266 14.6168 15.7294 14.3629 14.5321C13.5169 15.3165 12.6285 15.7294 11.5708 14.945ZM8.35568 12.5917C7.80572 13.789 7.00193 14.8624 6.15583 15.7706C5.60587 16.3486 4.63286 16.844 3.87138 16.844C2.72915 16.844 2.39071 15.7294 2.17919 14.7798C2.09458 14.367 2.00997 13.7064 2.00997 13.2936C1.84075 11.4771 2.55993 9.86697 3.91369 8.4633C5.39435 6.97706 7.34036 7.30734 8.27107 9.16514C8.86333 10.2385 8.94795 11.3119 8.35568 12.5917ZM39.9573 14.5734C39.1535 15.3165 38.2228 15.7294 37.2075 14.945C36.0653 14.078 35.8961 13.2936 36.5729 11.8899C37.1652 10.6514 37.7998 9.45413 38.4344 8.2156C38.7305 7.59633 38.9843 6.93578 39.2804 6.23394C36.8691 5.8211 36.6998 5.94495 35.9384 7.88532C35.6845 8.50459 35.4307 9.08257 35.05 9.94954C34.7115 7.92661 34.077 6.48165 32.2155 6.02752C29.9734 5.49083 28.1966 6.23395 26.9698 8.00918C25.7429 9.74312 25.4468 11.6835 25.7429 13.6651C25.9968 15.5229 27.139 17.0505 29.0004 17.5872C30.6926 18.0826 32.4694 17.8349 33.7808 16.3486C34.3731 15.6468 34.9654 14.945 35.5153 14.2431C35.9384 15.1927 36.3191 16.1835 36.8268 17.0092C37.419 17.9587 38.6882 18.0413 39.365 17.2156C39.5343 16.9679 40.1688 15.7706 39.9573 14.5734ZM33.95 12.5917C33.4001 13.789 32.5963 14.8624 31.7502 15.7706C31.2002 16.3486 30.2272 16.844 29.4657 16.844C28.3235 16.844 27.9851 15.7294 27.7736 14.7798C27.6889 14.367 27.6043 13.7064 27.6043 13.2936C27.4351 11.4771 28.1543 9.86697 29.5081 8.4633C30.9887 6.97706 32.9347 7.30734 33.8654 9.16514C34.4577 10.2385 34.5423 11.3119 33.95 12.5917Z" fill="black"/>
</svg>
